<?xml version="1.0" encoding="UTF-8"?>
<svg xmlns="http://www.w3.org/2000/svg" viewBox="0 0 2037.04 831.62">
  <g>
    <path fill="#2e2e2e" d="M2029.12,268.39c-.84-1.27-1.72-2.53-2.58-3.75-4.05-5.82-7.88-11.31-7.9-17.13,0-3.4.8-7.01,1.66-10.84.46-2.03.93-4.13,1.3-6.29.95-5.55,1.45-11.17,1.49-16.69.15-21.89-6.6-43.93-19-62.08-6.2-9.06-13.82-17.12-22.67-23.95-3.54-2.74-7.71-5.43-12.11-8.28-2.68-1.73-5.39-3.48-7.96-5.25-2.81-2.31-10.53-9.13-13.28-11.51-3.64-3.16-7.27-6.46-9.75-10.6-10.14-16.9,2.9-49.93,2.73-69-.04-5,.26-12.63-6.54-12.99-1.26-.07-18.8,10.29-38.4,22.08.51-7.39.85-14.32.19-19.91-.59-4.96-1.13-12.59-7.93-12.19-2.81.16-81.31,61.39-86.89,65.43-4.65,3.36-8.65,8.37-13.22,11.8-57.95,2.05-127.71,2.78-197.97-2.9-37.22-3.01-76.95-5.77-117.45-3.66-34.3,1.78-68.89,5.82-102.34,9.72-4.44.52-8.89,1.04-13.33,1.55l-1.63.19c-74.99,8.66-152.5,17.62-229.07,17.62-.55,0-1.11,0-1.66,0-61.32-.1-123.24-7.7-183.13-15.04-9.48-1.16-19.28-2.36-28.93-3.52-38.04-4.55-69.51-7.05-99.03-7.86-35.9-.99-68.49.57-99.63,4.76h-.05c-5.53.79-11.44,2.03-18.09,3.78-32.94,8.68-63.91,22.66-95.38,37.45-32.37,15.21-66.05,32.55-102.98,53.01-24.45,13.55-48.26,26.93-70.78,41.71-37.91,24.87-79.72,44.94-120.15,64.36-9.1,4.37-18.52,8.89-27.74,13.39l-84.36,41.2c-24.67,12.05-50.17,24.51-77.02,30.18-14.16,2.99-27.54,3.63-39.79,1.92-4.09-.57-8.24-1.58-12.64-2.64-9.75-2.36-19.83-4.81-30.67-2.83-11.08,2.02-20.64,8.68-26.93,18.76-7.3,11.71-9.44,26.56-5.71,39.74,3.59,12.71,11.21,23.7,22.63,32.69,9.39,7.39,21.37,13.29,34.65,17.06,26.58,7.56,57.1,9.66,88.26,6.1,55.93-6.4,107.22-30.52,156.83-53.84l3.12-1.46c8.32-3.91,16.65-7.81,24.98-11.71,18.94-8.87,38.52-18.04,57.72-27.2,25.05-11.94,51.74-25.31,77.29-42.06,3.42-2.24,6.84-4.55,10.31-6.95-17.23,24.62-33.33,48.72-47.57,70.29-7.81,11.82-15.66,23.89-23.24,35.56-10.68,16.43-21.73,33.42-32.82,49.95-.89,1.32-1.78,2.68-2.68,4.05-3.43,5.22-6.99,10.61-10.54,14.54-2.53.99-5.68,1.35-8.99,1.74-3.35.39-6.82.8-10.33,1.87-14.62,4.46-25,15.15-32.4,23.96-2.94,3.5-5.75,7.12-8.47,10.62-5.28,6.81-10.28,13.24-16.15,18.85-2.67,2.55-5.46,4.96-8.42,7.52-1.39,1.2-2.83,2.45-4.25,3.7-15.37,13.59-29.15,26.3-42.13,38.85-20.49,19.81-36.3,36.55-49.77,52.67-12.82,15.34-25.93,31.92-33.07,51.03-6.2,16.61-8.36,33.81-6.23,49.73,1.11,8.3,3.41,16.62,6.85,24.75,4.51,10.67,12.71,19.16,23.71,24.55,9.94,4.88,21.55,6.81,32.68,5.43,22.04-2.72,37.76-17.39,41.02-38.27,1.18-7.57-1.57-15.31-4.23-22.79-3.61-10.16-5.52-16.62-1.62-20.69,2.16-2.25,4.4-4.41,6.78-6.69.91-.88,1.83-1.76,2.73-2.64l20.53-19.97c11.84-11.52,23.37-23.18,34.26-34.66,9.86-10.39,19.69-20.24,31.48-26.53,13-6.94,29.24-8.13,44.76-8.75,5.71-.23,11.57-.31,17.23-.4,11.1-.16,22.57-.33,33.96-1.56,32.2-3.47,62.12-15.64,91.07-27.42,3.46-1.41,7.04-2.86,10.55-4.28,64.84-26.07,129.96-54.18,193.73-83.65-2.84,22.06-7.56,39.97-14.61,55.68-3.14,7-6.79,13.56-10.83,19.5-3.06,4.5-6.64,8.57-10.43,12.88-1.61,1.83-3.28,3.73-4.91,5.67-7.75,9.21-10.7,19.63-8.78,30.98,2.67,15.75,15.04,33.02,36.78,51.32,12.79,10.77,28.66,21.8,47.19,32.79,1.71,1.01,3.42,2.03,5.15,3.06,39.17,23.27,83.56,49.65,128.34,59.86,16.41,3.74,34.14,5.55,52.69,5.37,17.53-.17,37.25-2.21,50.6-16.04,11.23-11.63,14.82-27.55,9.59-42.58-5.46-15.7-19.12-26.83-35.65-29.05-7.77-1.04-15.2-.55-22.39-.08-8.3.55-16.14,1.06-23.78-.82-8.8-2.17-17.11-6-25.91-10.07-4.66-2.15-9.48-4.38-14.39-6.34-1.43-.57-2.91-1.15-4.41-1.74-16.26-6.38-36.5-14.31-42.19-29.94-4.12-11.34,5.92-19.85,19.48-29.8l.23-.17c8.28-6.08,16.94-12.03,25.31-17.78,4.83-3.32,9.82-6.75,14.71-10.18,24.5-17.21,49.43-36.69,66.76-62.59,20.66,4.9,41.66,8.96,62.47,12.08,53.78,8.05,111.5,10.18,171.55,6.34,50.23-3.21,100.88-9.73,149.87-16.04,3.18-.41,6.35-.82,9.53-1.23.44,4.62.95,9.27,1.52,13.9,1.81,14.68,4.27,29.44,6.65,43.71,2.29,13.74,4.66,27.95,6.42,41.94,1.56,12.44,2.95,25.14,4.28,37.42.95,8.69,1.92,17.67,2.96,26.51.89,7.6,2.5,14.9,4.06,21.96l.47,2.14c1.33,6.04,2.71,12.29,4.65,18.44,1.98,6.26,4.63,12.98,8.1,20.57,7.62,16.65,16.76,29.17,27.93,38.26,11.41,9.29,25.37,15.99,41.47,19.9,10.11,2.46,19.8,3.69,28.99,3.69,5.1,0,10.05-.38,14.81-1.14,9.43-1.51,26.8-6.26,37.13-21.18,7.3-10.55,9.68-24.65,6.2-36.81-3.17-11.05-10.17-19.36-20.26-24.03-8.72-4.04-19.27-5-29.71-2.72-2.97.65-5.51.13-8-1.65-8.24-5.88-13.65-23.2-15.34-37.75-1.75-15.04,1.13-30.33,3.83-41.97,2.05-8.82,4.63-17.75,7.12-26.39,1.82-6.31,3.7-12.83,5.39-19.34,2.34-9.01,3.94-16.55,5.03-23.71,1.17-7.67,1.66-15.08,2.14-23.28.21-3.62.45-7.74.91-11.93,2.26,1.19,4.47,2.38,6.64,3.54,13.71,7.37,27.55,15.07,40.95,22.53,11.32,6.3,23.03,12.81,34.62,19.11,22.63,12.29,49.6,26.47,78.02,38.5,5.34,2.26,10.8,4.31,16.08,6.3,7.89,2.97,15.34,5.77,22.57,9.24,10.4,4.99,20.16,12.32,29,21.78,8.04,8.6,15.02,18.62,21.49,28.14,4.63,6.81,9.44,13.61,14.09,20.18,2.43,3.44,4.95,6.99,7.4,10.5.79,1.13,1.58,2.26,2.37,3.41,11.08,15.93,23.64,33.99,43.24,42.78,9.01,4.04,19.14,4.72,28.55,1.9,9.22-2.76,17.38-8.75,22.97-16.88,7.27-10.55,9.44-23.32,6.47-37.96-2.11-10.37-6.84-21.7-14.06-33.66-5.52-9.13-11.4-18.19-17.1-26.94-2.35-3.62-4.78-7.35-7.14-11.03-2.66-4.14-5.35-8.38-7.95-12.49-13.2-20.82-26.85-42.35-43.22-61.58-11.37-13.36-24.16-25.49-36.53-37.21-5.31-5.03-10.79-10.23-16.05-15.43-15.14-14.95-32-33.27-42.18-55.76l-.17-.35c-1.77-3.39-2.05-7.28-.92-12.59,1.13-5.32,2.32-11.07,3.32-17.04,1.1-6.53,2.41-12.85,3.9-18.76,3.03-12.04,6.96-23.09,11.67-32.84,9.85-20.4,23.45-36.19,40.43-46.94,15.61-9.88,36.64-12.68,64.29-8.57,12.15,1.81,24.24,2.24,35.93,2.66,10.19.37,20.73.75,30.96,2.05,7.15.91,14.11,3.47,21.48,6.17,8.78,3.22,17.85,6.55,27.85,7.24,1.86.13,3.68.19,5.47.19,30.72,0,52.08-18.23,72.77-35.89,3.01-2.57,6.12-5.23,9.19-7.76,3.88-3.21,11.92-11.21,14.53-18.56,4-11.28-1.38-21.59-6.52-29.32Z"/>
  </g>
</svg>